<svg fill="none" height="24" viewBox="0 0 24 24" width="24" xmlns="http://www.w3.org/2000/svg"><rect height="14" rx="2" stroke="#33363f" stroke-width="2" width="17" x="3" y="5"/><path d="m7.70711 9.29289c-.39053-.39052-1.02369-.39052-1.41422 0-.39052.39053-.39052 1.02371 0 1.41421zm-1.41422 4.00001c-.39052.3905-.39052 1.0237 0 1.4142.39053.3905 1.02369.3905 1.41422 0zm2.70711-1.2929.70711.7071c.39049-.3905.39049-1.0237 0-1.4142zm-2.70711-1.2929 2 2 1.41422-1.4142-2-2.00001zm2 .5858-2 2 1.41422 1.4142 2-2z" fill="#33363f"/><path d="m12 14h4" stroke="#33363f" stroke-linecap="round" stroke-width="2"/></svg>