<?xml version="1.0" encoding="UTF-8"?>
<svg xmlns="http://www.w3.org/2000/svg" xmlns:xlink="http://www.w3.org/1999/xlink" width="297pt" height="360pt" viewBox="0 0 297 360" version="1.1">
<g id="surface1">
<path style=" stroke:none;fill-rule:evenodd;fill:rgb(88.626099%,32.940674%,26.66626%);fill-opacity:1;" d="M 271.5 62.25 L 209.25 180.75 L 271.5 299.25 L 297 285 L 297 76.5 Z M 271.5 62.25 "/>
<path style=" stroke:none;fill-rule:evenodd;fill:rgb(48.234558%,11.372375%,7.450867%);fill-opacity:1;" d="M 271.5 62.25 L 147 76.5 L 83.625 180.75 L 147 285 L 271.5 299.25 Z M 271.5 62.25 "/>
<path style=" stroke:none;fill-rule:evenodd;fill:rgb(34.509277%,8.235168%,5.097961%);fill-opacity:1;" d="M 20.25 62.25 L 0 71.25 L 0 290.25 L 20.25 299.25 L 147 180.75 Z M 20.25 62.25 "/>
<path style=" stroke:none;fill-rule:evenodd;fill:rgb(88.626099%,32.940674%,26.66626%);fill-opacity:1;" d="M 19.976562 62 L 147.167969 97.332031 L 147.167969 267.332031 L 19.976562 299.332031 Z M 19.976562 62 "/>
<path style=" stroke:none;fill-rule:evenodd;fill:rgb(34.509277%,8.235168%,5.097961%);fill-opacity:1;" d="M 147.234375 116 L 93.230469 107.332031 L 147.234375 46 L 201.105469 107.332031 Z M 147.234375 116 "/>
<path style=" stroke:none;fill-rule:evenodd;fill:rgb(34.509277%,8.235168%,5.097961%);fill-opacity:1;" d="M 201.105469 107.332031 L 147.167969 116.132812 L 93.230469 107.332031 L 93.230469 46 "/>
<path style=" stroke:none;fill-rule:evenodd;fill:rgb(34.509277%,8.235168%,5.097961%);fill-opacity:1;" d="M 147.234375 244.667969 L 93.230469 254.667969 L 147.234375 307.332031 L 201.105469 254.667969 Z M 147.234375 244.667969 "/>
<path style=" stroke:none;fill-rule:evenodd;fill:rgb(48.234558%,11.372375%,7.450867%);fill-opacity:1;" d="M 147 0 L 93 28.5 L 93 107.25 L 147.167969 92 Z M 147 0 "/>
<path style=" stroke:none;fill-rule:evenodd;fill:rgb(48.234558%,11.372375%,7.450867%);fill-opacity:1;" d="M 147.167969 135.332031 L 93.230469 141.199219 L 93.230469 219.828125 L 147.167969 226 Z M 147.167969 135.332031 "/>
<path style=" stroke:none;fill-rule:evenodd;fill:rgb(48.234558%,11.372375%,7.450867%);fill-opacity:1;" d="M 147.167969 268 L 93.230469 254.476562 L 93.230469 331.773438 L 147.167969 360 Z M 147.167969 268 "/>
<path style=" stroke:none;fill-rule:evenodd;fill:rgb(88.626099%,32.940674%,26.66626%);fill-opacity:1;" d="M 201.105469 254.476562 L 147.167969 268.003906 L 147.167969 360 L 201.105469 331.773438 Z M 201.105469 254.476562 "/>
<path style=" stroke:none;fill-rule:evenodd;fill:rgb(88.626099%,32.940674%,26.66626%);fill-opacity:1;" d="M 147.167969 135.332031 L 201.105469 141.199219 L 201.105469 219.828125 L 147.167969 226 Z M 147.167969 135.332031 "/>
<path style=" stroke:none;fill-rule:evenodd;fill:rgb(88.626099%,32.940674%,26.66626%);fill-opacity:1;" d="M 147 0 L 201 28.5 L 201 107.25 L 147 92.25 Z M 147 0 "/>
</g>
</svg>
