<?xml version="1.0" encoding="UTF-8"?>
<svg xmlns="http://www.w3.org/2000/svg" xmlns:xlink="http://www.w3.org/1999/xlink" width="639.999985pt" height="704.000015pt" viewBox="0 0 639.999985 704.000015" version="1.1">
<g id="surface1">
<path style=" stroke:none;fill-rule:nonzero;fill:rgb(0.392151%,0.392151%,0.392151%);fill-opacity:1;" d="M 320 0 C 140.558594 0 0 63.246094 0 144 L 0 560 C 0 640.753906 140.558594 704 320 704 C 499.441406 704 640 640.753906 640 560 L 640 144 C 640 63.246094 499.441406 0 320 0 Z M 608 416 C 608 482 456.222656 528 320 528 C 183.777344 528 32 482 32 416 L 32 335.425781 C 83.296875 383.488281 191.519531 416 320 416 C 448.480469 416 556.703125 383.488281 608 335.425781 Z M 608 272 C 608 338 456.222656 384 320 384 C 183.777344 384 32 338 32 272 L 32 207.425781 C 83.296875 255.488281 191.519531 288 320 288 C 448.480469 288 556.703125 255.488281 608 207.425781 Z M 320 32 C 456.222656 32 608 78 608 144 C 608 210 456.222656 256 320 256 C 183.777344 256 32 210 32 144 C 32 78 183.792969 32 320 32 Z M 320 672 C 183.777344 672 32 626 32 560 L 32 479.425781 C 83.296875 527.488281 191.519531 560 320 560 C 448.480469 560 556.703125 527.488281 608 479.425781 L 608 560 C 608 626 456.222656 672 320 672 Z M 320 672 "/>
</g>
</svg>
