<?xml version="1.0" encoding="UTF-8"?>
<svg xmlns="http://www.w3.org/2000/svg" xmlns:xlink="http://www.w3.org/1999/xlink" width="600pt" height="600pt" viewBox="0 0 600 600" version="1.1">
<g id="surface1">
<path style=" stroke:none;fill-rule:nonzero;fill:rgb(7.450867%,66.665649%,32.156372%);fill-opacity:1;" d="M 600 300 C 600 465.683594 465.683594 600 300 600 C 134.316406 600 0 465.683594 0 300 C 0 134.316406 134.316406 0 300 0 C 465.683594 0 600 134.316406 600 300 Z M 600 300 "/>
<path style=" stroke:none;fill-rule:nonzero;fill:rgb(100%,100%,100%);fill-opacity:1;" d="M 380.191406 263.34375 C 361.242188 179.714844 316.460938 152.214844 311.636719 141.710938 C 306.363281 134.296875 301.019531 121.113281 301.019531 121.113281 C 300.933594 120.890625 300.792969 120.5 300.628906 120.117188 C 300.082031 127.53125 299.800781 130.390625 292.792969 137.867188 C 281.941406 146.351562 226.265625 193.066406 221.738281 288.082031 C 217.511719 376.699219 285.75 429.503906 294.980469 436.238281 L 296.027344 436.980469 L 296.027344 436.917969 C 296.085938 437.363281 298.957031 458.011719 300.972656 479.890625 L 308.203125 479.890625 C 309.898438 464.421875 312.441406 449.0625 315.820312 433.875 L 316.40625 433.496094 C 320.535156 430.535156 324.46875 427.316406 328.191406 423.855469 L 328.613281 423.476562 C 348.230469 405.351562 383.496094 363.433594 383.152344 296.601562 C 383.078125 285.453125 382.085938 274.328125 380.191406 263.34375 Z M 300.207031 386.203125 C 300.207031 386.203125 300.207031 261.914062 304.308594 261.9375 C 307.507812 261.9375 311.648438 422.257812 311.648438 422.257812 C 305.953125 421.570312 300.207031 395.871094 300.207031 386.203125 Z M 300.207031 386.203125 "/>
</g>
</svg>
