<?xml version="1.0" encoding="UTF-8"?>
<svg xmlns="http://www.w3.org/2000/svg" xmlns:xlink="http://www.w3.org/1999/xlink" width="1278.923401pt" height="1278.795502pt" viewBox="0 0 1278.923401 1278.795502" version="1.1">
<defs>
<clipPath id="clip1">
  <path d="M 408 0 L 1278.921875 0 L 1278.921875 842 L 408 842 Z M 408 0 "/>
</clipPath>
</defs>
<g id="surface1">
<path style=" stroke:none;fill-rule:nonzero;fill:rgb(57.646179%,83.528137%,0%);fill-opacity:1;" d="M 337.96875 706.53125 L 0.511719 706.53125 C 0.574219 708.195312 0.617188 709.835938 0.703125 711.476562 C 0.832031 714.652344 1.066406 717.808594 1.257812 720.984375 C 1.34375 722.347656 1.40625 723.714844 1.511719 725.058594 C 1.769531 728.722656 2.089844 732.390625 2.429688 736.035156 C 2.515625 736.867188 2.578125 737.699219 2.664062 738.488281 C 3.046875 742.558594 3.496094 746.632812 3.964844 750.660156 C 3.988281 751.046875 4.03125 751.449219 4.09375 751.832031 C 4.625 756.183594 5.179688 760.554688 5.820312 764.882812 C 5.820312 764.945312 5.820312 765.007812 5.839844 765.050781 C 9.730469 792.011719 15.558594 818.660156 23.28125 844.785156 C 23.324219 844.890625 23.367188 844.996094 23.386719 845.105469 C 24.601562 849.242188 25.882812 853.332031 27.183594 857.40625 C 27.265625 857.640625 27.351562 857.894531 27.417969 858.128906 C 27.480469 858.363281 27.566406 858.597656 27.652344 858.855469 C 28.84375 862.542969 30.101562 866.210938 31.359375 869.898438 C 31.679688 870.816406 32 871.753906 32.339844 872.691406 C 33.472656 875.867188 34.621094 879.042969 35.816406 882.242188 C 36.371094 883.671875 36.902344 885.097656 37.4375 886.546875 C 38.480469 889.191406 39.484375 891.816406 40.527344 894.4375 C 41.316406 896.417969 42.125 898.402344 42.957031 900.363281 C 43.8125 902.429688 44.664062 904.457031 45.539062 906.523438 C 46.601562 909.039062 47.734375 911.535156 48.84375 914.050781 C 49.503906 915.542969 50.183594 917.015625 50.847656 918.507812 C 52.210938 921.511719 53.617188 924.519531 55.046875 927.503906 C 55.515625 928.460938 55.960938 929.421875 56.429688 930.359375 C 58.09375 933.8125 59.777344 937.203125 61.484375 940.59375 C 61.78125 941.105469 62.015625 941.636719 62.292969 942.148438 C 64.214844 945.902344 66.175781 949.632812 68.199219 953.339844 C 68.285156 953.511719 68.390625 953.660156 68.457031 953.851562 C 68.882812 954.621094 69.351562 955.367188 69.777344 956.132812 L 357.988281 782.535156 L 359.054688 781.894531 C 347.691406 757.929688 340.613281 732.433594 337.96875 706.53125 Z M 337.96875 706.53125 "/>
<path style=" stroke:none;fill-rule:nonzero;fill:rgb(30.195618%,35.293579%,19.215393%);fill-opacity:1;" d="M 420.921875 861.457031 L 420.113281 862.265625 L 182.40625 1099.953125 C 183.621094 1101.082031 184.835938 1102.253906 186.09375 1103.34375 C 188.3125 1105.367188 190.570312 1107.351562 192.808594 1109.332031 C 193.980469 1110.355469 195.113281 1111.378906 196.285156 1112.402344 C 198.96875 1114.726562 201.699219 1116.984375 204.40625 1119.265625 C 205.152344 1119.886719 205.855469 1120.484375 206.601562 1121.101562 C 210.058594 1123.945312 213.546875 1126.742188 217.070312 1129.5 C 220.4375 1132.164062 223.828125 1134.746094 227.28125 1137.347656 C 227.429688 1137.429688 227.539062 1137.515625 227.664062 1137.621094 C 242.007812 1148.339844 256.847656 1158.371094 272.136719 1167.683594 C 272.648438 1168.023438 273.183594 1168.324219 273.714844 1168.664062 C 276.636719 1170.390625 279.535156 1172.117188 282.476562 1173.824219 L 287.847656 1176.894531 C 289.554688 1177.875 291.238281 1178.8125 292.945312 1179.75 C 296.035156 1181.433594 299.128906 1183.117188 302.238281 1184.757812 C 302.667969 1184.992188 303.09375 1185.226562 303.539062 1185.441406 C 312.175781 1189.960938 320.957031 1194.160156 329.828125 1198.210938 L 338.269531 1177.722656 L 457.828125 887.421875 L 458.253906 886.355469 C 445.207031 879.363281 432.691406 871.09375 420.921875 861.457031 Z M 420.921875 861.457031 "/>
<path style=" stroke:none;fill-rule:nonzero;fill:rgb(41.960144%,64.312744%,22.744751%);fill-opacity:1;" d="M 396.171875 837.769531 C 393.617188 834.925781 391.144531 832.011719 388.753906 829.03125 C 386.621094 826.40625 384.574219 823.765625 382.589844 821.078125 C 380.308594 818.007812 378.09375 814.894531 375.984375 811.742188 C 373.871094 808.5625 371.78125 805.367188 369.820312 802.125 L 81.246094 975.941406 C 85.679688 983.316406 90.285156 990.480469 95.019531 997.558594 C 95.167969 997.8125 95.316406 998.070312 95.488281 998.304688 C 95.53125 998.410156 95.59375 998.472656 95.660156 998.582031 C 95.808594 998.792969 95.957031 999.050781 96.105469 999.285156 C 96.128906 999.304688 96.148438 999.328125 96.148438 999.367188 C 96.53125 999.921875 96.917969 1000.476562 97.300781 1001.054688 C 97.320312 1001.074219 97.34375 1001.117188 97.386719 1001.160156 C 97.429688 1001.203125 97.40625 1001.179688 97.40625 1001.203125 C 102.417969 1008.601562 107.574219 1015.890625 112.882812 1023.011719 C 112.992188 1023.160156 113.117188 1023.308594 113.226562 1023.460938 C 113.351562 1023.609375 113.460938 1023.757812 113.566406 1023.90625 C 115.890625 1026.957031 118.191406 1030.003906 120.582031 1033.03125 C 120.898438 1033.4375 121.199219 1033.820312 121.539062 1034.203125 C 123.96875 1037.339844 126.464844 1040.429688 129 1043.476562 C 129.597656 1044.203125 130.214844 1044.929688 130.8125 1045.675781 C 133.09375 1048.402344 135.375 1051.109375 137.699219 1053.796875 C 138.703125 1054.949219 139.726562 1056.121094 140.75 1057.25 C 142.730469 1059.511719 144.691406 1061.769531 146.71875 1063.988281 C 147.824219 1065.203125 148.976562 1066.4375 150.105469 1067.652344 C 150.617188 1068.230469 151.128906 1068.761719 151.664062 1069.339844 C 153.132812 1070.9375 154.605469 1072.535156 156.097656 1074.113281 C 156.695312 1074.730469 157.335938 1075.351562 157.929688 1075.988281 C 160.554688 1078.71875 163.21875 1081.46875 165.90625 1084.15625 L 403.972656 846.128906 C 401.246094 843.398438 398.6875 840.585938 396.171875 837.769531 Z M 396.171875 837.769531 "/>
<path style=" stroke:none;fill-rule:nonzero;fill:rgb(30.195618%,35.293579%,19.215393%);fill-opacity:1;" d="M 711.714844 861.328125 C 709.09375 863.4375 706.449219 865.507812 703.761719 867.488281 L 704.339844 868.492188 L 877.917969 1156.574219 C 885.953125 1151.332031 893.90625 1145.917969 901.667969 1140.222656 C 918.464844 1127.835938 934.710938 1114.40625 950.382812 1099.953125 L 712.652344 862.265625 Z M 711.714844 861.328125 "/>
<path style=" stroke:none;fill-rule:nonzero;fill:rgb(57.646179%,83.528137%,0%);fill-opacity:1;" d="M 852.699219 1158.941406 L 846.8125 1149.15625 L 684.789062 880.257812 C 681.503906 882.222656 678.160156 884.011719 674.8125 885.800781 C 671.421875 887.636719 668.03125 889.320312 664.578125 890.960938 C 633.453125 905.714844 599.769531 913.261719 566.019531 913.261719 C 543.914062 913.261719 521.824219 910.0625 500.464844 903.6875 C 496.820312 902.601562 493.257812 901.171875 489.675781 899.894531 C 486.074219 898.636719 482.429688 897.527344 478.890625 896.078125 L 359.417969 1186.1875 L 354.75 1197.550781 L 350.742188 1207.292969 L 350.71875 1207.335938 C 351.019531 1207.464844 351.335938 1207.570312 351.636719 1207.699219 C 351.976562 1207.828125 352.296875 1207.933594 352.617188 1208.082031 L 352.660156 1208.082031 C 352.746094 1208.125 352.828125 1208.144531 352.894531 1208.167969 C 355.707031 1209.339844 358.542969 1210.320312 361.378906 1211.429688 C 364.9375 1212.816406 368.476562 1214.222656 372.039062 1215.523438 C 373.871094 1216.183594 375.664062 1216.949219 377.476562 1217.589844 L 377.496094 1217.589844 C 414.9375 1230.804688 453.65625 1240.074219 493.023438 1245.242188 C 494.582031 1245.433594 496.09375 1245.648438 497.648438 1245.859375 C 499.25 1246.050781 500.871094 1246.199219 502.488281 1246.394531 C 505.515625 1246.734375 508.542969 1247.074219 511.59375 1247.375 L 513.851562 1247.566406 C 517.582031 1247.925781 521.3125 1248.246094 525.023438 1248.503906 C 526.304688 1248.609375 527.582031 1248.652344 528.839844 1248.757812 C 532.101562 1248.972656 535.363281 1249.164062 538.625 1249.3125 C 540.628906 1249.441406 542.632812 1249.484375 544.636719 1249.570312 C 547.238281 1249.65625 549.816406 1249.761719 552.417969 1249.847656 C 556.148438 1249.933594 559.921875 1249.953125 563.675781 1249.972656 C 564.570312 1249.972656 565.445312 1249.996094 566.339844 1250.015625 C 597.785156 1250.015625 629.230469 1247.394531 660.335938 1242.171875 C 660.847656 1242.085938 661.378906 1242 661.914062 1241.9375 C 665.195312 1241.363281 668.480469 1240.742188 671.761719 1240.144531 C 673.640625 1239.785156 675.535156 1239.421875 677.371094 1239.058594 C 679.289062 1238.652344 681.226562 1238.269531 683.148438 1237.84375 C 686.34375 1237.183594 689.542969 1236.480469 692.761719 1235.734375 C 693.335938 1235.605469 693.914062 1235.5 694.488281 1235.328125 C 741.773438 1224.328125 787.441406 1207.273438 830.332031 1184.695312 L 830.332031 1184.675781 C 833.148438 1183.203125 835.898438 1181.519531 838.691406 1179.984375 C 842.015625 1178.171875 845.320312 1176.273438 848.648438 1174.378906 C 850.929688 1173.078125 853.25 1171.863281 855.53125 1170.496094 C 855.554688 1170.476562 855.574219 1170.453125 855.597656 1170.453125 L 855.617188 1170.453125 C 855.660156 1170.433594 855.683594 1170.410156 855.726562 1170.390625 L 855.765625 1170.347656 L 855.339844 1169.644531 L 855.765625 1170.347656 C 855.789062 1170.347656 855.808594 1170.328125 855.832031 1170.328125 C 855.875 1170.304688 855.894531 1170.285156 855.9375 1170.261719 C 856.066406 1170.175781 856.195312 1170.113281 856.320312 1170.027344 C 857.046875 1169.582031 857.792969 1169.152344 858.539062 1168.707031 Z M 421.050781 506.109375 C 423.671875 503.980469 426.339844 501.933594 429.003906 499.929688 L 428.425781 498.949219 L 254.847656 210.84375 C 246.789062 216.109375 238.835938 221.542969 231.054688 227.238281 C 214.277344 239.601562 198.011719 253.011719 182.382812 267.445312 L 420.113281 505.152344 Z M 421.050781 506.109375 "/>
<path style=" stroke:none;fill-rule:nonzero;fill:rgb(30.195618%,35.293579%,19.215393%);fill-opacity:1;" d="M 165.90625 283.285156 C 163.195312 285.992188 160.640625 288.785156 157.996094 291.511719 C 155.375 294.261719 152.6875 296.992188 150.105469 299.765625 C 132.75 318.527344 116.683594 338.441406 102.011719 359.371094 C 101.308594 360.332031 100.625 361.355469 99.921875 362.335938 C 98.300781 364.722656 96.683594 367.089844 95.105469 369.476562 C 93.441406 371.949219 91.800781 374.464844 90.199219 376.960938 C 89.605469 377.875 89.007812 378.816406 88.429688 379.730469 C 33.746094 465.496094 4.457031 562.777344 0.511719 660.867188 C 0.363281 664.679688 0.277344 668.496094 0.191406 672.292969 C 0.128906 676.085938 0 679.902344 0 683.699219 L 336.691406 683.699219 C 336.691406 679.902344 337.03125 676.109375 337.246094 672.292969 C 337.4375 668.476562 337.480469 664.660156 337.863281 660.867188 C 342.214844 617.035156 359.140625 574.226562 388.644531 538.28125 C 391.035156 535.359375 393.742188 532.609375 396.320312 529.796875 C 398.859375 526.960938 401.246094 524.039062 403.972656 521.3125 Z M 860.585938 199.714844 C 860.136719 199.4375 859.648438 199.160156 859.199219 198.882812 C 856.234375 197.070312 853.25 195.320312 850.246094 193.574219 C 848.519531 192.570312 846.769531 191.589844 845.042969 190.609375 C 843.273438 189.628906 841.546875 188.648438 839.777344 187.691406 C 836.734375 186.03125 833.683594 184.382812 830.632812 182.742188 C 830.140625 182.507812 829.671875 182.253906 829.183594 181.996094 C 809.441406 171.679688 789.167969 162.597656 768.464844 154.710938 C 767.933594 154.496094 767.398438 154.28125 766.867188 154.089844 C 762.347656 152.40625 757.828125 150.722656 753.265625 149.144531 C 716.472656 136.3125 678.460938 127.289062 639.828125 122.21875 L 635.09375 121.578125 C 633.496094 121.386719 631.917969 121.238281 630.339844 121.066406 C 627.292969 120.707031 624.265625 120.363281 621.195312 120.066406 C 620.363281 119.980469 619.511719 119.9375 618.636719 119.832031 C 615.03125 119.511719 611.386719 119.191406 607.761719 118.914062 L 603.519531 118.660156 C 600.429688 118.464844 597.273438 118.230469 594.183594 118.105469 C 592.519531 118.019531 590.855469 117.953125 589.214844 117.914062 L 589.214844 455.371094 C 606.527344 457.164062 623.6875 460.851562 640.339844 466.5 L 888.726562 218.15625 C 879.496094 211.757812 870.179688 205.535156 860.585938 199.714844 Z M 860.585938 199.714844 "/>
<path style=" stroke:none;fill-rule:nonzero;fill:rgb(41.960144%,64.312744%,22.744751%);fill-opacity:1;" d="M 554.976562 117.636719 C 551.160156 117.71875 547.34375 117.71875 543.550781 117.871094 C 519.738281 118.828125 495.964844 121.257812 472.386719 125.226562 C 471.875 125.308594 471.363281 125.394531 470.832031 125.480469 C 467.527344 126.054688 464.242188 126.652344 460.960938 127.269531 C 459.105469 127.632812 457.230469 127.976562 455.351562 128.335938 C 453.414062 128.722656 451.496094 129.125 449.554688 129.550781 C 446.355469 130.214844 443.160156 130.917969 439.980469 131.664062 C 439.386719 131.769531 438.808594 131.917969 438.234375 132.046875 C 390.972656 143.082031 345.316406 160.101562 302.367188 182.699219 C 299.574219 184.191406 296.847656 185.878906 294.054688 187.390625 C 290.726562 189.222656 287.402344 191.101562 284.097656 192.996094 C 281.644531 194.425781 279.152344 195.726562 276.699219 197.175781 C 276.679688 197.199219 276.636719 197.21875 276.613281 197.21875 C 276.445312 197.324219 276.273438 197.433594 276.101562 197.519531 C 275.464844 197.921875 274.800781 198.242188 274.164062 198.625 L 274.183594 198.667969 L 280.089844 208.453125 L 447.976562 487.15625 C 451.261719 485.195312 454.605469 483.382812 457.953125 481.59375 C 461.324219 479.78125 464.734375 478.074219 468.164062 476.457031 C 491.890625 465.132812 517.394531 457.984375 543.550781 455.328125 C 547.34375 454.945312 551.140625 454.625 554.957031 454.433594 C 558.75 454.242188 562.566406 454.050781 566.382812 454.050781 L 566.382812 117.402344 C 562.566406 117.402344 558.773438 117.570312 554.976562 117.636719 Z M 554.976562 117.636719 "/>
<path style=" stroke:none;fill-rule:nonzero;fill:rgb(30.195618%,35.293579%,19.215393%);fill-opacity:1;" d="M 1132.0625 655.875 C 1131.890625 652.847656 1131.722656 649.84375 1131.507812 646.796875 C 1131.429688 645.285156 1131.328125 643.78125 1131.210938 642.273438 C 1130.976562 638.714844 1130.675781 635.15625 1130.335938 631.59375 C 1130.269531 630.679688 1130.1875 629.761719 1130.101562 628.84375 C 1129.71875 624.859375 1129.289062 620.890625 1128.820312 616.925781 C 1128.777344 616.605469 1128.757812 616.289062 1128.714844 615.96875 L 1128.652344 615.519531 C 1128.140625 611.234375 1127.5625 606.949219 1126.964844 602.6875 L 1126.902344 602.28125 C 1123.015625 575.371094 1117.203125 548.773438 1109.507812 522.695312 C 1109.441406 522.503906 1109.398438 522.355469 1109.335938 522.183594 C 1108.121094 518.113281 1106.863281 514.082031 1105.605469 510.054688 C 1105.414062 509.523438 1105.242188 508.988281 1105.070312 508.457031 C 1103.878906 504.808594 1102.664062 501.1875 1101.40625 497.5625 L 1100.382812 494.621094 C 1099.273438 491.484375 1098.121094 488.351562 1096.972656 485.21875 C 1096.394531 483.726562 1095.839844 482.234375 1095.242188 480.761719 C 1094.261719 478.160156 1093.261719 475.582031 1092.214844 473.023438 C 1091.40625 470.957031 1090.574219 468.929688 1089.742188 466.925781 C 1088.914062 464.902344 1088.058594 462.917969 1087.226562 460.914062 C 1086.121094 458.355469 1084.988281 455.796875 1083.859375 453.261719 C 1083.21875 451.832031 1082.582031 450.382812 1081.917969 448.933594 C 1080.535156 445.90625 1079.105469 442.855469 1077.675781 439.828125 C 1077.230469 438.933594 1076.78125 437.996094 1076.335938 437.078125 C 1074.671875 433.625 1072.964844 430.152344 1071.21875 426.738281 C 1070.984375 426.269531 1070.726562 425.78125 1070.492188 425.3125 C 1068.550781 421.539062 1066.546875 417.742188 1064.542969 414.011719 C 1064.460938 413.882812 1064.394531 413.734375 1064.308594 413.605469 C 1054.519531 395.617188 1043.765625 378.164062 1032.097656 361.332031 L 783.644531 609.785156 C 789.292969 626.433594 792.960938 643.597656 794.753906 660.886719 L 1132.273438 660.886719 C 1132.191406 659.203125 1132.148438 657.519531 1132.0625 655.875 Z M 1132.0625 655.875 "/>
<path style=" stroke:none;fill-rule:nonzero;fill:rgb(41.960144%,64.312744%,22.744751%);fill-opacity:1;" d="M 796.074219 683.699219 C 796.074219 687.515625 795.710938 691.308594 795.519531 695.125 C 795.328125 698.941406 795.265625 702.757812 794.878906 706.53125 C 790.53125 750.382812 773.625 793.191406 744.121094 829.15625 C 741.730469 832.078125 739.023438 834.808594 736.445312 837.644531 C 733.886719 840.457031 731.519531 843.378906 728.792969 846.105469 L 966.859375 1084.132812 C 969.566406 1081.425781 972.105469 1078.632812 974.75 1075.882812 C 977.390625 1073.132812 980.078125 1070.425781 982.636719 1067.632812 C 1000.246094 1048.550781 1016.363281 1028.597656 1030.859375 1007.855469 C 1031.457031 1007.023438 1031.992188 1006.210938 1032.566406 1005.402344 C 1034.335938 1002.867188 1036.042969 1000.285156 1037.789062 997.726562 C 1039.304688 995.425781 1040.816406 993.144531 1042.289062 990.820312 C 1043.035156 989.710938 1043.757812 988.558594 1044.460938 987.453125 C 1099.058594 901.726562 1128.289062 804.554688 1132.210938 706.53125 C 1132.359375 702.734375 1132.445312 698.921875 1132.507812 695.105469 C 1132.59375 691.308594 1132.703125 687.515625 1132.703125 683.699219 Z M 796.074219 683.699219 "/>
<g clip-path="url(#clip1)" clip-rule="nonzero">
<path style=" stroke:none;fill-rule:nonzero;fill:rgb(25.881958%,25.489807%,26.274109%);fill-opacity:1;" d="M 1232.730469 17.414062 C 1171.140625 -44.175781 1071.28125 -44.175781 1009.691406 17.414062 C 960.550781 66.535156 950.722656 139.976562 979.992188 198.945312 L 636.414062 542.503906 C 577.449219 513.253906 503.980469 523.058594 454.839844 572.179688 C 393.25 633.769531 393.273438 733.628906 454.839844 795.21875 C 516.453125 856.808594 616.332031 856.789062 677.925781 795.21875 C 727.0625 746.078125 736.871094 672.632812 707.601562 613.664062 L 1051.175781 270.128906 C 1110.167969 299.378906 1183.589844 289.574219 1232.730469 240.433594 C 1294.320312 178.863281 1294.320312 79.003906 1232.730469 17.414062 Z M 1232.730469 17.414062 "/>
</g>
</g>
</svg>
