<?xml version="1.0" encoding="UTF-8"?>
<svg xmlns="http://www.w3.org/2000/svg" xmlns:xlink="http://www.w3.org/1999/xlink" width="449.56636pt" height="600.003296pt" viewBox="0 0 449.56636 600.003296" version="1.1">
<g id="surface1">
<path style=" stroke:none;fill-rule:nonzero;fill:rgb(0%,73.724365%,94.900513%);fill-opacity:1;" d="M 189.128906 599.617188 C 132.964844 595.570312 77.453125 581.433594 43.410156 562.507812 C 24.019531 551.726562 9.246094 538.480469 3.449219 526.671875 L 0 519.648438 L 0 78.9375 L 2.730469 73.398438 C 14.925781 48.632812 53.851562 26.308594 108.191406 12.914062 C 126.636719 8.367188 153.265625 3.839844 174.988281 1.554688 C 197.171875 -0.777344 255.96875 -0.421875 278.09375 2.183594 C 336.90625 9.089844 386.949219 24.558594 417.789062 45.363281 C 429.683594 53.382812 441.886719 66.21875 446.019531 75.054688 L 449.566406 82.628906 L 449.261719 302.320312 L 448.960938 522.007812 L 446.113281 527.789062 C 444.550781 530.96875 439.824219 537.222656 435.609375 541.6875 C 409.964844 568.871094 354.960938 588.984375 282.808594 597.550781 C 268.105469 599.296875 204.214844 600.710938 189.128906 599.621094 Z M 292.628906 410.804688 C 292.414062 410.242188 284.015625 402.761719 273.972656 394.183594 C 263.925781 385.601562 255.273438 378.179688 254.746094 377.6875 C 254.214844 377.195312 256.070312 375.449219 258.867188 373.808594 C 261.664062 372.171875 267.027344 367.609375 270.777344 363.671875 C 281.753906 352.164062 286.933594 337.949219 286.933594 319.324219 C 286.933594 300.992188 281.347656 286.203125 270.160156 274.910156 C 258.886719 263.527344 245.941406 258.640625 227.089844 258.640625 C 198.03125 258.640625 175.714844 275.59375 168.59375 303.082031 C 166.144531 312.539062 166.15625 331.644531 168.621094 340.027344 C 175.042969 361.894531 192.539062 377.777344 214.308594 381.507812 C 221.679688 382.769531 222.675781 383.316406 227.699219 388.808594 C 230.683594 392.070312 236.8125 398.585938 241.3125 403.285156 L 249.5 411.828125 L 271.261719 411.828125 C 283.230469 411.828125 292.84375 411.367188 292.628906 410.804688 Z M 218 349.875 C 212.761719 347.144531 210.78125 345.023438 207.792969 338.949219 C 205.488281 334.257812 205.09375 331.589844 205.066406 320.503906 C 205.039062 309.238281 205.398438 306.804688 207.808594 301.914062 C 211.75 293.90625 217.179688 290.117188 225.582031 289.511719 C 237.28125 288.664062 244.03125 294.402344 247.570312 308.199219 C 251.90625 325.109375 247.136719 343.09375 236.730469 349.058594 C 231.269531 352.191406 223.125 352.542969 218 349.875 Z M 121.546875 381.269531 C 144.359375 376.941406 157.3125 363.671875 157.3125 344.625 C 157.3125 327.730469 148.949219 317.882812 125.839844 307.566406 C 112.613281 301.660156 107.820312 297.953125 107.820312 293.621094 C 107.820312 290.03125 112.367188 286.097656 117.660156 285.109375 C 122.832031 284.144531 136.539062 286.527344 144.632812 289.796875 L 151.421875 292.539062 L 151.421875 262.496094 L 144.054688 260.863281 C 139.503906 259.851562 129.9375 259.246094 119.015625 259.277344 C 103.542969 259.277344 100.511719 259.65625 94.6875 261.96875 C 77.679688 268.71875 69.605469 280.222656 69.734375 297.527344 C 69.855469 313.722656 78.402344 323.828125 99.667969 332.917969 C 112.21875 338.28125 117.246094 342.367188 117.246094 347.191406 C 117.246094 357.449219 100.160156 358.710938 82.066406 349.789062 C 77.113281 347.347656 72.660156 345.148438 72.175781 344.90625 C 71.6875 344.664062 71.292969 351.679688 71.292969 360.5 C 71.292969 376.460938 71.308594 376.539062 74.199219 377.640625 C 85.082031 381.777344 109.136719 383.621094 121.546875 381.269531 Z M 382.378906 366.460938 L 382.378906 352.910156 L 341.136719 352.910156 L 341.136719 259.816406 L 304.609375 259.816406 L 304.609375 380.011719 L 382.378906 380.011719 Z M 255.117188 128.988281 C 291.414062 126.472656 318.621094 121.71875 342.5625 113.714844 C 366.410156 105.738281 380.5 96.089844 383.652344 85.570312 C 384.867188 81.515625 384.78125 79.980469 383.082031 75.535156 C 375.472656 55.609375 332.964844 40.300781 268.011719 34.097656 C 240.226562 31.441406 189.699219 32.300781 163.207031 35.878906 C 122.78125 41.339844 89.976562 51.488281 75.390625 63.035156 C 45.882812 86.402344 77.085938 112.101562 149.652344 124.195312 C 181.117188 129.441406 221.882812 131.292969 255.117188 128.988281 Z M 255.117188 128.988281 "/>
</g>
</svg>
